<svg xmlns="http://www.w3.org/2000/svg" viewBox="0 0 200 200" fill="none">
  <title>Style Eternal — Eternal Flame Symbol</title>
  <!-- Outer flame -->
  <path d="M100 20 C80 60, 50 90, 55 130 C60 165, 80 185, 100 190 C120 185, 140 165, 145 130 C150 90, 120 60, 100 20Z" stroke="#C43030" stroke-width="2" fill="none"/>
  <!-- Inner flame -->
  <path d="M100 55 C90 80, 70 100, 73 125 C76 148, 88 162, 100 165 C112 162, 124 148, 127 125 C130 100, 110 80, 100 55Z" fill="#C43030" opacity="0.15"/>
  <!-- Heart shape in center -->
  <path d="M100 110 C95 102, 85 100, 85 108 C85 116, 100 128, 100 128 C100 128, 115 116, 115 108 C115 100, 105 102, 100 110Z" fill="#C43030" opacity="0.3"/>
  <!-- Center glow -->
  <circle cx="100" cy="115" r="3" fill="#E8E4DE" opacity="0.5"/>
</svg>
